<?xml version="1.0" ?><svg version="1.1" viewBox="0.471296161413193 -0.357742011547089 170.49496665597 171.02273529768" xmlns="http://www.w3.org/2000/svg" xmlns:xlink="http://www.w3.org/1999/xlink"><defs><linearGradient gradientTransform="rotate(-49.1698 0.232422 0.809681)" id="def0" x1="0.232422" x2="0.599386" y1="0.809681" y2="0.809681"><stop offset="0" stop-color="#6C6D6F"/><stop offset="1" stop-color="#221E1F"/></linearGradient><linearGradient gradientTransform="rotate(-23.551 0.191045 0.634638)" id="def1" x1="0.191045" x2="0.516727" y1="0.634638" y2="0.634638"><stop offset="0" stop-color="#6C6D6F"/><stop offset="1" stop-color="#221E1F"/></linearGradient><linearGradient gradientTransform="rotate(43.1291 0.220046 0.237752)" id="def2" x1="0.220046" x2="0.625553" y1="0.237752" y2="0.237752"><stop offset="0" stop-color="#6C6D6F"/><stop offset="1" stop-color="#221E1F"/></linearGradient><linearGradient gradientTransform="rotate(230.191 0.73856 0.78619)" id="def3" x1="0.73856" x2="1.10455" y1="0.78619" y2="0.78619"><stop offset="0" stop-color="#6C6D6F"/><stop offset="0.613174" stop-color="#221E1F"/><stop offset="1" stop-color="#221E1F"/></linearGradient><linearGradient gradientTransform="rotate(206.16 0.861767 0.677677)" id="def4" x1="0.861767" x2="1.19356" y1="0.677677" y2="0.677677"><stop offset="0" stop-color="#6C6D6F"/><stop offset="1" stop-color="#221E1F"/></linearGradient><linearGradient gradientTransform="rotate(137.938 0.856718 0.178112)" id="def5" x1="0.856718" x2="1.2602" y1="0.178112" y2="0.178112"><stop offset="0" stop-color="#6C6D6F"/><stop offset="1" stop-color="#221E1F"/></linearGradient><radialGradient cx="0.499997" cy="0.499999" id="def6" r="0.495739"><stop offset="0" stop-color="#EF5022"/><stop offset="0.580002" stop-color="#EF4822"/><stop offset="0.763687" stop-color="#A31E15"/><stop offset="1" stop-color="#A31E15"/></radialGradient><radialGradient cx="0.499999" cy="0.499991" id="def7" r="0.73426"><stop offset="0" stop-color="#A6A8AB"/><stop offset="1" stop-color="#57585A"/></radialGradient></defs><g><path d="M50.4347,99.3373L15.5133,139.321C13.188,141.985,13.464,146.067,16.124,148.388L16.124,148.388C18.788,150.717,22.8693,150.441,25.1947,147.777L60.116,107.792C62.444,105.128,62.164,101.052,59.504,98.7227L59.504,98.7227C58.2907,97.6653,56.784,97.1467,55.2827,97.1467L55.2827,97.1467C53.488,97.1467,51.7027,97.888,50.4347,99.3373z" fill="url(#def0)"/><path d="M58.3533,70.8333L5.90266,79.036C2.41066,79.5827,-4.21206E-06,82.8867,0.549329,86.38L0.549329,86.38C1.09466,89.872,4.396,92.2827,7.88933,91.7347L60.3427,83.5293C63.8347,82.9867,66.2453,79.6827,65.6973,76.1893L65.6973,76.1893C65.2027,73.0307,62.452,70.756,59.3467,70.756L59.3467,70.756C59.0187,70.756,58.6867,70.7813,58.3533,70.8333z" fill="url(#def1)"/><path d="M16.9573,23.7413C14.9787,26.6733,15.7653,30.6867,18.692,32.66L62.7227,62.3293C65.6507,64.3027,69.6653,63.5227,71.6413,60.592L71.6413,60.5893C73.6147,57.6573,72.8347,53.6453,69.904,51.6707L25.876,22.0013C24.7813,21.264,23.5347,20.912,22.3013,20.912L22.3013,20.912C20.2307,20.9107,18.1947,21.904,16.9573,23.7413z" fill="url(#def2)"/><path d="M111.933,98.7227C109.268,101.052,108.995,105.128,111.32,107.792L146.244,147.777C148.568,150.441,152.648,150.717,155.311,148.388L155.311,148.388C157.973,146.067,158.247,141.985,155.924,139.321L121.001,99.3373C119.735,97.888,117.948,97.1467,116.153,97.1467L116.153,97.1467C114.653,97.1467,113.145,97.6653,111.933,98.7227z" fill="url(#def3)"/><path d="M105.741,76.1893C105.193,79.6827,107.603,82.9867,111.095,83.5293L163.547,91.7347C167.04,92.2827,170.343,89.872,170.889,86.38L170.889,86.38C171.435,82.8867,169.028,79.5827,165.535,79.036L113.081,70.8333C112.748,70.7813,112.417,70.756,112.089,70.756L112.089,70.756C108.984,70.756,106.236,73.0307,105.741,76.1893z" fill="url(#def4)"/><path d="M145.56,22.0013L101.532,51.6707C98.6013,53.6453,97.8187,57.6573,99.7973,60.5893L99.7973,60.592C101.771,63.5227,105.784,64.3027,108.716,62.3293L152.74,32.66C155.673,30.6867,156.453,26.6733,154.481,23.7413L154.481,23.7413C153.243,21.904,151.205,20.9107,149.136,20.912L149.136,20.912C147.901,20.912,146.655,21.264,145.56,22.0013z" fill="url(#def5)"/><path d="M28.0813,95.0093C28.0813,136.097,54.6907,169.612,87.3173,169.612L87.3173,169.612C119.945,169.612,146.553,136.097,146.553,95.0093L146.553,95.0093C146.553,53.9173,119.945,20.4067,87.3173,20.4067L87.3173,20.4067C54.6907,20.4067,28.0813,53.9173,28.0813,95.0093z" fill="url(#def6)"/><g><path d="M128.379,42.9101C117.854,29.6608 103.337,21.4635 87.3168,21.4635 71.2968,21.4635 56.7795,29.6608 46.2555,42.9101 35.6781,56.2315 29.1381,74.6528 29.1381,95.0088 29.1381,115.366 35.6781,133.783 46.2555,147.105 56.7795,160.357 71.2968,168.553 87.3168,168.553 103.337,168.553 117.854,160.357 128.379,147.105 138.953,133.783 145.495,115.366 145.495,95.0088 145.495,74.6528 138.953,56.2315 128.379,42.9101z M87.3168,19.3501C104.013,19.3501 119.111,27.8541 130.026,41.6008 140.889,55.2808 147.606,74.1635 147.606,95.0088 147.606,115.851 140.889,134.738 130.026,148.418 119.111,162.161 104.013,170.665 87.3168,170.665 70.6221,170.665 55.5221,162.161 44.6075,148.418 33.7448,134.738 27.0248,115.851 27.0248,95.0088 27.0248,74.1635 33.7448,55.2808 44.6075,41.6008 55.5221,27.8541 70.6221,19.3501 87.3168,19.3501z" fill="#830E09"/></g><path d="M37.1653,53.5107L136.675,53.5107C130.423,23.0053,110.513,0.698669,86.9187,0.698669L86.9187,0.698669C63.3227,0.698669,43.4147,23.0053,37.1653,53.5107z" fill="url(#def7)"/><path d="M117.419,16.1249C108.919,7.10226 98.3599,1.7556 86.9185,1.7556 75.4799,1.7556 64.9172,7.10226 56.4185,16.1249 47.9372,25.1263 41.5025,37.7876 38.2825,52.4543L135.557,52.4543C132.335,37.7876,125.899,25.1263,117.419,16.1249z M86.9185,-0.357742C98.7932,-0.357742 109.745,5.18359 118.557,14.5329 127.551,24.0796 134.305,37.6076 137.512,53.2543L137.78,54.5649 136.673,54.5649 37.1652,54.5649 36.0572,54.5649 36.3239,53.2543C39.5319,37.6076 46.2865,24.0796 55.2839,14.5329 64.0905,5.18359 75.0465,-0.357742 86.9185,-0.357742z" fill="#231F20"/><path d="M86.2027,54.564L88.3133,54.564 88.3133,169.809 86.2027,169.809 86.2027,54.564z" fill="#830E09"/><path d="M44.0111,48.9063L59.6577,48.9063C59.6577,48.9063 58.8204,31.0263 66.0844,19.2916 73.3497,7.55293 82.8497,4.7596 82.8497,4.7596 82.8497,4.7596 57.1431,3.9236 44.0111,48.9063z" fill="#A6A8AB" style="fill-opacity:0.603921568627451"/><path d="M63.7069,82.4824C68.1776,82.4824 71.8243,78.8331 71.8243,74.3624 71.8243,69.8917 68.1776,66.2411 63.7069,66.2411 59.2336,66.2411 55.5869,69.8917 55.5869,74.3624 55.5869,78.8331 59.2336,82.4824 63.7069,82.4824z" fill="#FFCA11"/><path d="M68.6985,69.3672C67.4212,68.0925 65.6545,67.3005 63.7039,67.3005 61.7545,67.3005 59.9865,68.0925 58.7119,69.3672 57.4319,70.6445 56.6399,72.4112 56.6399,74.3619 56.6399,76.3112 57.4319,78.0792 58.7119,79.3565 59.9865,80.6339 61.7545,81.4259 63.7039,81.4259 65.6545,81.4259 67.4212,80.6339 68.6985,79.3565 69.9759,78.0792 70.7679,76.3112 70.7679,74.3619 70.7679,72.4112 69.9759,70.6445 68.6985,69.3672z M63.7039,65.1872C66.2385,65.1872 68.5319,66.2152 70.1919,67.8739 71.8505,69.5352 72.8812,71.8299 72.8812,74.3619 72.8812,76.8939 71.8505,79.1899 70.1919,80.8499 68.5319,82.5112 66.2385,83.5352 63.7039,83.5352 61.1692,83.5352 58.8745,82.5112 57.2159,80.8499 55.5572,79.1899 54.5305,76.8939 54.5305,74.3619 54.5305,71.8299 55.5572,69.5352 57.2159,67.8739 58.8745,66.2152 61.1692,65.1872 63.7039,65.1872z" fill="#A31F16"/><path d="M44.5755,116.547C49.0488,116.547 52.6928,112.9 52.6928,108.427 52.6928,103.956 49.0488,100.31 44.5755,100.31 40.1048,100.31 36.4581,103.956 36.4581,108.427 36.4581,112.9 40.1048,116.547 44.5755,116.547z" fill="#FFCA11"/><path d="M49.5677,103.435C48.2917,102.158 46.5224,101.366 44.5757,101.366 42.6251,101.366 40.8597,102.158 39.5811,103.435 38.3037,104.714 37.5117,106.476 37.5117,108.427 37.5117,110.376 38.3037,112.146 39.5811,113.422 40.8597,114.702 42.6251,115.491 44.5757,115.491 46.5224,115.491 48.2917,114.702 49.5677,113.422 50.8477,112.146 51.6397,110.376 51.6397,108.427 51.6397,106.476 50.8477,104.714 49.5677,103.435z M44.5757,99.2523C47.1077,99.2523 49.4037,100.28 51.0637,101.943 52.7224,103.602 53.7504,105.895 53.7504,108.427 53.7504,110.963 52.7224,113.255 51.0637,114.916 49.4037,116.576 47.1077,117.604 44.5757,117.604 42.0411,117.604 39.7477,116.576 38.0891,114.916 36.4291,113.255 35.3997,110.963 35.3997,108.427 35.3997,105.895 36.4291,103.602 38.0891,101.943 39.7477,100.28 42.0411,99.2523 44.5757,99.2523z" fill="#A31F16"/><path d="M72.2376,147.563C76.7083,147.563 80.3549,143.916 80.3549,139.441 80.3549,134.972 76.7083,131.324 72.2376,131.324 67.7643,131.324 64.1203,134.972 64.1203,139.441 64.1203,143.916 67.7643,147.563 72.2376,147.563z" fill="#FFCA11"/><path d="M77.2291,134.451C75.9544,133.172 74.1851,132.38 72.2344,132.38 70.2851,132.38 68.5211,133.172 67.2424,134.451 65.9651,135.728 65.1731,137.495 65.1731,139.441 65.1731,141.392 65.9651,143.161 67.2424,144.436 68.5211,145.716 70.2851,146.508 72.2344,146.508 74.1851,146.508 75.9544,145.716 77.2291,144.436 78.5064,143.161 79.2984,141.392 79.2984,139.441 79.2984,137.495 78.5064,135.728 77.2291,134.451z M72.2344,130.267C74.7664,130.267 77.0624,131.299 78.7251,132.957 80.3837,134.616 81.4117,136.909 81.4117,139.441 81.4117,141.977 80.3837,144.269 78.7251,145.932 77.0624,147.591 74.7664,148.619 72.2344,148.619 69.7024,148.619 67.4091,147.591 65.7504,145.932 64.0877,144.269 63.0611,141.977 63.0611,139.441 63.0611,136.909 64.0877,134.616 65.7504,132.957 67.4091,131.299 69.7024,130.267 72.2344,130.267z" fill="#A31F16"/><path d="M111.823,82.4824C116.295,82.4824 119.942,78.8331 119.942,74.3624 119.942,69.8917 116.295,66.2411 111.823,66.2411 107.351,66.2411 103.703,69.8917 103.703,74.3624 103.703,78.8331 107.351,82.4824 111.823,82.4824z" fill="#FFCA11"/><path d="M106.826,69.3672C108.105,68.0925 109.874,67.3005 111.821,67.3005 113.771,67.3005 115.538,68.0925 116.815,69.3672 118.093,70.6445 118.885,72.4112 118.885,74.3619 118.885,76.3112 118.093,78.0792 116.815,79.3565 115.538,80.6339 113.771,81.4259 111.821,81.4259 109.874,81.4259 108.105,80.6339 106.826,79.3565 105.549,78.0792 104.757,76.3112 104.757,74.3619 104.757,72.4112 105.549,70.6445 106.826,69.3672z M111.821,65.1872C109.289,65.1872 106.993,66.2152 105.334,67.8739 103.674,69.5352 102.643,71.8299 102.643,74.3619 102.643,76.8939 103.674,79.1899 105.334,80.8499 106.993,82.5112 109.289,83.5352 111.821,83.5352 114.355,83.5352 116.649,82.5112 118.309,80.8499 119.967,79.1899 120.998,76.8939 120.998,74.3619 120.998,71.8299 119.967,69.5352 118.309,67.8739 116.649,66.2152 114.355,65.1872 111.821,65.1872z" fill="#A31F16"/><path d="M130.952,116.547C135.423,116.547 139.07,112.9 139.07,108.427 139.07,103.956 135.423,100.31 130.952,100.31 126.479,100.31 122.831,103.956 122.831,108.427 122.831,112.9 126.479,116.547 130.952,116.547z" fill="#FFCA11"/><path d="M125.958,103.435C127.232,102.158 129.002,101.366 130.952,101.366 132.899,101.366 134.666,102.158 135.943,103.435 137.22,104.714 138.012,106.476 138.012,108.427 138.012,110.376 137.22,112.146 135.943,113.422 134.666,114.702 132.899,115.491 130.952,115.491 129.002,115.491 127.232,114.702 125.958,113.422 124.676,112.146 123.884,110.376 123.884,108.427 123.884,106.476 124.676,104.714 125.958,103.435z M130.952,99.2523C128.418,99.2523 126.12,100.28 124.462,101.943 122.803,103.602 121.775,105.895 121.775,108.427 121.775,110.963 122.803,113.255 124.462,114.916 126.12,116.576 128.418,117.604 130.952,117.604 133.484,117.604 135.778,116.576 137.436,114.916 139.096,113.255 140.126,110.963 140.126,108.427 140.126,105.895 139.096,103.602 137.436,101.943 135.778,100.28 133.484,99.2523 130.952,99.2523z" fill="#A31F16"/><path d="M103.29,147.563C107.762,147.563 111.411,143.916 111.411,139.441 111.411,134.972 107.762,131.324 103.29,131.324 98.8191,131.324 95.1697,134.972 95.1697,139.441 95.1697,143.916 98.8191,147.563 103.29,147.563z" fill="#FFCA11"/><path d="M98.2961,134.451C99.5708,133.172 101.34,132.38 103.289,132.38 105.24,132.38 107.004,133.172 108.284,134.451 109.559,135.728 110.351,137.495 110.351,139.441 110.351,141.392 109.559,143.161 108.284,144.436 107.004,145.716 105.24,146.508 103.289,146.508 101.34,146.508 99.5708,145.716 98.2961,144.436 97.0175,143.161 96.2255,141.392 96.2255,139.441 96.2255,137.495 97.0175,135.728 98.2961,134.451z M103.289,130.267C100.759,130.267 98.4615,131.299 96.8001,132.957 95.1415,134.616 94.1161,136.909 94.1161,139.441 94.1161,141.977 95.1415,144.269 96.8001,145.932 98.4615,147.591 100.759,148.619 103.289,148.619 105.823,148.619 108.116,147.591 109.775,145.932 111.436,144.269 112.464,141.977 112.464,139.441 112.464,136.909 111.436,134.616 109.775,132.957 108.116,131.299 105.823,130.267 103.289,130.267z" fill="#A31F16"/><path d="M130.835,48.9063L115.189,48.9063C115.189,48.9063 116.027,31.0263 108.762,19.2916 101.497,7.55293 91.9965,4.7596 91.9965,4.7596 91.9965,4.7596 117.703,3.9236 130.835,48.9063z" fill="#A6A8AB" style="fill-opacity:0.603921568627451"/><path d="M80.4707,165.333L80.4707,148C80.4707,148 55.512,138.041 44.5747,112.188 33.6373,86.3333 41.804,60 41.804,60 41.804,60 29.928,97.78 38.9707,120.667 51.416,152.167 80.4707,165.333 80.4707,165.333z" fill="#FFFFFF" style="fill-opacity:0.352941176470588"/><path d="M93.804,166.667L93.804,149.333C93.804,149.333 118.981,139.375 129.919,113.521 140.856,87.6667 132.799,61.3333 132.799,61.3333 132.799,61.3333 144.509,99.1133 135.468,122 123.023,153.5 93.804,166.667 93.804,166.667z" fill="#FFFFFF" style="fill-opacity:0.352941176470588"/></g></svg>